<svg width="456" height="87" viewBox="0 0 456 87" fill="none" xmlns="http://www.w3.org/2000/svg">
<path d="M43.5 87C67.5244 87 87 67.5244 87 43.5C87 19.4756 67.5244 0 43.5 0C19.4756 0 0 19.4756 0 43.5C0 67.5244 19.4756 87 43.5 87Z" fill="url(#paint0_linear)"/>
<g filter="url(#filter0_i)">
<path d="M52.9689 57.0555C52.9689 57.7817 52.8698 58.376 52.6718 58.8381C52.4737 59.2673 52.2096 59.6139 51.8795 59.878C51.5494 60.1091 51.1697 60.2741 50.7406 60.3732C50.3444 60.4722 49.9318 60.5217 49.5026 60.5217H34.0036C33.6404 60.5217 33.2773 60.4887 32.9142 60.4227C32.551 60.3237 32.2209 60.1751 31.9238 59.977C31.6597 59.746 31.4451 59.4489 31.2801 59.0857C31.115 58.6896 31.0325 58.1779 31.0325 57.5507V45.7159H15.9791C15.5169 47.4325 15.1703 49.2647 14.9392 51.2124C14.7081 53.1601 14.5926 55.2728 14.5926 57.5507C14.5926 58.8051 14.312 59.6139 13.7508 59.977C13.2226 60.3402 12.5954 60.5217 11.8691 60.5217H10.136V57.5507C10.136 53.2591 10.4991 49.4793 11.2254 46.2111C11.9847 42.9099 12.9915 40.0544 14.246 37.6445C15.5334 35.2016 17.019 33.1714 18.7026 31.5538C20.3862 29.9362 22.1688 28.6323 24.0505 27.6419C25.9322 26.6516 27.8468 25.9418 29.7945 25.5127C31.7753 25.0835 33.6734 24.8689 35.4891 24.8689C36.6115 24.8689 37.3378 25.1495 37.6679 25.7107C37.998 26.2719 38.1631 26.8827 38.1631 27.5429V28.8303H35.4891V57.0555H52.9689ZM31.0325 29.3255C28.1274 29.9858 25.47 31.3558 23.0601 33.4355C20.6503 35.4822 18.7026 38.3378 17.217 42.0021H31.0325V29.3255Z" fill="white"/>
</g>
<g filter="url(#filter1_i)">
<path d="M42.8618 60.5217C41.4753 60.5217 40.4519 60.1751 39.7917 59.4819C39.1644 58.7556 38.8508 57.6002 38.8508 56.0156C38.8508 55.1243 38.9334 54.266 39.0984 53.4407C39.2965 52.6154 39.5606 51.8231 39.8907 51.0638V34.7725C39.8907 34.5084 39.9897 34.2773 40.1878 34.0792C40.3859 33.8812 40.617 33.7821 40.8811 33.7821H43.3569C43.621 33.7821 43.8521 33.8812 44.0502 34.0792C44.2483 34.2773 44.3473 34.5084 44.3473 34.7725V43.6857C45.2716 42.0681 46.295 40.5826 47.4174 39.2291C48.5728 37.8756 49.7778 36.7367 51.0322 35.8124C52.2867 34.855 53.5576 34.1123 54.8451 33.5841C56.1325 33.0559 57.3705 32.7918 58.5589 32.7918C59.4172 32.7918 60.127 32.9073 60.6882 33.1384C61.2824 33.3695 61.7446 33.6831 62.0747 34.0792C62.4378 34.4754 62.6854 34.9541 62.8174 35.5153C62.9495 36.0434 63.0155 36.6212 63.0155 37.2484V57.0555H78.8612C78.8612 57.7818 78.7622 58.376 78.5641 58.8381C78.366 59.2673 78.1019 59.6139 77.7718 59.878C77.4417 60.1091 77.0621 60.2741 76.6329 60.3732C76.2368 60.4722 75.8241 60.5217 75.395 60.5217H61.53C61.1668 60.5217 60.8037 60.4887 60.4406 60.4227C60.0775 60.3237 59.7473 60.1751 59.4502 59.977C59.1861 59.746 58.9716 59.4489 58.8065 59.0857C58.6414 58.6896 58.5589 58.1779 58.5589 57.5507V36.7532C57.3705 36.7532 55.9675 37.1824 54.3499 38.0407C52.7323 38.899 51.1808 40.1864 49.6952 41.9031C48.2097 43.6197 46.9387 45.7654 45.8824 48.3404C44.859 50.9153 44.3473 53.9359 44.3473 57.4021V60.5217H42.8618Z" fill="white"/>
</g>
<path d="M118.734 52.7266H109.488L107.73 58H102.123L111.65 32.4062H116.537L126.117 58H120.51L118.734 52.7266ZM110.912 48.4551H117.311L114.094 38.875L110.912 48.4551ZM228.598 58H223.324L213.059 41.1602V58H207.785V32.4062H213.059L223.342 49.2812V32.4062H228.598V58Z" fill="#26C836"/>
<path d="M131.76 38.9805L131.865 41.3711C133.318 39.543 135.217 38.6289 137.561 38.6289C141.58 38.6289 143.607 40.8965 143.643 45.4316V58H140.391V45.4141C140.379 44.043 140.062 43.0293 139.441 42.373C138.832 41.7168 137.877 41.3887 136.576 41.3887C135.521 41.3887 134.596 41.6699 133.799 42.2324C133.002 42.7949 132.381 43.5332 131.936 44.4473V58H128.684V38.9805H131.76ZM152.08 58H148.828V38.9805H152.08V58ZM148.564 33.9355C148.564 33.4082 148.723 32.9629 149.039 32.5996C149.367 32.2363 149.848 32.0547 150.48 32.0547C151.113 32.0547 151.594 32.2363 151.922 32.5996C152.25 32.9629 152.414 33.4082 152.414 33.9355C152.414 34.4629 152.25 34.9023 151.922 35.2539C151.594 35.6055 151.113 35.7812 150.48 35.7812C149.848 35.7812 149.367 35.6055 149.039 35.2539C148.723 34.9023 148.564 34.4629 148.564 33.9355ZM160.359 38.9805L160.447 41.0898C161.842 39.4492 163.723 38.6289 166.09 38.6289C168.75 38.6289 170.561 39.6484 171.521 41.6875C172.154 40.7734 172.975 40.0352 173.982 39.4727C175.002 38.9102 176.203 38.6289 177.586 38.6289C181.758 38.6289 183.879 40.8379 183.949 45.2559V58H180.697V45.4492C180.697 44.0898 180.387 43.0762 179.766 42.4082C179.145 41.7285 178.102 41.3887 176.637 41.3887C175.43 41.3887 174.428 41.752 173.631 42.4785C172.834 43.1934 172.371 44.1602 172.242 45.3789V58H168.973V45.5371C168.973 42.7715 167.619 41.3887 164.912 41.3887C162.779 41.3887 161.32 42.2969 160.535 44.1133V58H157.283V38.9805H160.359ZM196.764 58.3516C194.186 58.3516 192.088 57.5078 190.471 55.8203C188.854 54.1211 188.045 51.8535 188.045 49.0176V48.4199C188.045 46.5332 188.402 44.8516 189.117 43.375C189.844 41.8867 190.852 40.7266 192.141 39.8945C193.441 39.0508 194.848 38.6289 196.359 38.6289C198.832 38.6289 200.754 39.4434 202.125 41.0723C203.496 42.7012 204.182 45.0332 204.182 48.0684V49.4219H191.297C191.344 51.2969 191.889 52.8145 192.932 53.9746C193.986 55.123 195.322 55.6973 196.939 55.6973C198.088 55.6973 199.061 55.4629 199.857 54.9941C200.654 54.5254 201.352 53.9043 201.949 53.1309L203.936 54.6777C202.342 57.127 199.951 58.3516 196.764 58.3516ZM196.359 41.3008C195.047 41.3008 193.945 41.7812 193.055 42.7422C192.164 43.6914 191.613 45.0273 191.402 46.75H200.93V46.5039C200.836 44.8516 200.391 43.5742 199.594 42.6719C198.797 41.7578 197.719 41.3008 196.359 41.3008ZM241.271 58.3516C238.693 58.3516 236.596 57.5078 234.979 55.8203C233.361 54.1211 232.553 51.8535 232.553 49.0176V48.4199C232.553 46.5332 232.91 44.8516 233.625 43.375C234.352 41.8867 235.359 40.7266 236.648 39.8945C237.949 39.0508 239.355 38.6289 240.867 38.6289C243.34 38.6289 245.262 39.4434 246.633 41.0723C248.004 42.7012 248.689 45.0332 248.689 48.0684V49.4219H235.805C235.852 51.2969 236.396 52.8145 237.439 53.9746C238.494 55.123 239.83 55.6973 241.447 55.6973C242.596 55.6973 243.568 55.4629 244.365 54.9941C245.162 54.5254 245.859 53.9043 246.457 53.1309L248.443 54.6777C246.85 57.127 244.459 58.3516 241.271 58.3516ZM240.867 41.3008C239.555 41.3008 238.453 41.7812 237.562 42.7422C236.672 43.6914 236.121 45.0273 235.91 46.75H245.438V46.5039C245.344 44.8516 244.898 43.5742 244.102 42.6719C243.305 41.7578 242.227 41.3008 240.867 41.3008ZM268.535 48.7012C268.535 51.5957 267.873 53.9277 266.549 55.6973C265.225 57.4668 263.432 58.3516 261.17 58.3516C258.861 58.3516 257.045 57.6191 255.721 56.1543V65.3125H252.469V38.9805H255.439L255.598 41.0898C256.922 39.4492 258.762 38.6289 261.117 38.6289C263.402 38.6289 265.207 39.4902 266.531 41.2129C267.867 42.9355 268.535 45.332 268.535 48.4023V48.7012ZM265.283 48.332C265.283 46.1875 264.826 44.4941 263.912 43.252C262.998 42.0098 261.744 41.3887 260.15 41.3887C258.182 41.3887 256.705 42.2617 255.721 44.0078V53.0957C256.693 54.8301 258.182 55.6973 260.186 55.6973C261.744 55.6973 262.98 55.082 263.895 53.8516C264.82 52.6094 265.283 50.7695 265.283 48.332ZM284.426 58C284.238 57.625 284.086 56.957 283.969 55.9961C282.457 57.5664 280.652 58.3516 278.555 58.3516C276.68 58.3516 275.139 57.8242 273.932 56.7695C272.736 55.7031 272.139 54.3555 272.139 52.7266C272.139 50.7461 272.889 49.2109 274.389 48.1211C275.9 47.0195 278.021 46.4688 280.752 46.4688H283.916V44.9746C283.916 43.8379 283.576 42.9355 282.896 42.2676C282.217 41.5879 281.215 41.248 279.891 41.248C278.73 41.248 277.758 41.541 276.973 42.127C276.188 42.7129 275.795 43.4219 275.795 44.2539H272.525C272.525 43.3047 272.859 42.3906 273.527 41.5117C274.207 40.6211 275.121 39.918 276.27 39.4023C277.43 38.8867 278.701 38.6289 280.084 38.6289C282.275 38.6289 283.992 39.1797 285.234 40.2812C286.477 41.3711 287.121 42.877 287.168 44.7988V53.5527C287.168 55.2988 287.391 56.6875 287.836 57.7188V58H284.426ZM279.029 55.5215C280.049 55.5215 281.016 55.2578 281.93 54.7305C282.844 54.2031 283.506 53.5176 283.916 52.6738V48.7715H281.367C277.383 48.7715 275.391 49.9375 275.391 52.2695C275.391 53.2891 275.73 54.0859 276.41 54.6602C277.09 55.2344 277.963 55.5215 279.029 55.5215ZM295.799 58H292.547V31H295.799V58Z" fill="white"/>
<defs>
<filter id="filter0_i" x="10.136" y="24.8689" width="42.8329" height="39.6528" filterUnits="userSpaceOnUse" color-interpolation-filters="sRGB">
<feFlood flood-opacity="0" result="BackgroundImageFix"/>
<feBlend mode="normal" in="SourceGraphic" in2="BackgroundImageFix" result="shape"/>
<feColorMatrix in="SourceAlpha" type="matrix" values="0 0 0 0 0 0 0 0 0 0 0 0 0 0 0 0 0 0 127 0" result="hardAlpha"/>
<feOffset dy="7"/>
<feGaussianBlur stdDeviation="2"/>
<feComposite in2="hardAlpha" operator="arithmetic" k2="-1" k3="1"/>
<feColorMatrix type="matrix" values="0 0 0 0 0 0 0 0 0 0 0 0 0 0 0 0 0 0 0.25 0"/>
<feBlend mode="normal" in2="shape" result="effect1_innerShadow"/>
</filter>
<filter id="filter1_i" x="38.8508" y="32.7918" width="40.0104" height="31.73" filterUnits="userSpaceOnUse" color-interpolation-filters="sRGB">
<feFlood flood-opacity="0" result="BackgroundImageFix"/>
<feBlend mode="normal" in="SourceGraphic" in2="BackgroundImageFix" result="shape"/>
<feColorMatrix in="SourceAlpha" type="matrix" values="0 0 0 0 0 0 0 0 0 0 0 0 0 0 0 0 0 0 127 0" result="hardAlpha"/>
<feOffset dy="7"/>
<feGaussianBlur stdDeviation="2"/>
<feComposite in2="hardAlpha" operator="arithmetic" k2="-1" k3="1"/>
<feColorMatrix type="matrix" values="0 0 0 0 0 0 0 0 0 0 0 0 0 0 0 0 0 0 0.25 0"/>
<feBlend mode="normal" in2="shape" result="effect1_innerShadow"/>
</filter>
<linearGradient id="paint0_linear" x1="45.0474" y1="-1.28953" x2="43.5" y2="93.3617" gradientUnits="userSpaceOnUse">
<stop stop-color="#3FFF52"/>
<stop offset="1" stop-color="#301E47"/>
</linearGradient>
</defs>
</svg>
